<?xml version="1.0" standalone="yes"?>
<svg xmlns="http://www.w3.org/2000/svg" width="290" height="174">
<path style="fill:#f6fbfc; stroke:none;" d="M0 0L0 174C9.67956 173.886 15.4879 165.704 23 160.44C33.6537 152.974 46.2761 147.633 59 145C56.082 138.75 51.1409 132.763 49.5324 126C45.9546 110.958 57.3495 97.0846 67 87C67 93.402 63.54 116.209 69.652 119.914C76.026 123.777 80.2829 107.897 78 104L147 48L147 88C147 94.4265 148.127 100.381 143 105C143.573 107.477 149.404 124.624 153.397 116.677C157.229 109.05 154 92.5392 154 84C163.856 93.8833 177.213 108.688 173.073 124C171.02 131.588 165.357 137.552 163 145C176.506 146.82 189.949 153.266 201 161.036C206.144 164.653 211.122 171.232 217 173.397C223.441 175.769 233.184 174 240 174L290 174L290 0L0 0z"/>
<path style="fill:#eab6a0; stroke:none;" d="M74 62L104 35.169L126 14L88 14L75.0278 15.6034L74 28L74 62M146 26C128.625 41.1678 110.729 55.8307 93 70.5864C87.0063 75.575 75.359 81.8885 74 90C94.3145 77.2956 112.577 58.9199 131 43.5864C135.537 39.8104 148.133 32.8173 146 26M146 48L90 94L90 95C95.0672 98.3002 96.9871 100.888 96 107L97 107L122.852 104.682L127.603 97.1343L137 93L142 99L143 105C148.128 101.854 147 96.4227 147 91C147 78.7942 150.707 59.2179 146 48M225.667 63.3333L226.333 63.6667L225.667 63.3333z"/>
<path style="fill:#6693a8; stroke:none;" d="M227 63L227 64L237 64L227 63z"/>
<path style="fill:#eab6a0; stroke:none;" d="M237 63L238 64L237 63M219 64L220 65L219 64z"/>
<path style="fill:#6693a8; stroke:none;" d="M220 64L220 65L223 65L220 64z"/>
<path style="fill:#08668b; stroke:none;" d="M218 65L218 66C227.165 68.2072 235.836 68.2072 245 66C236.874 62.0948 226.609 64.3206 218 65z"/>
<path style="fill:#6693a8; stroke:none;" d="M240 64L240 65L243 65L240 64z"/>
<path style="fill:#eab6a0; stroke:none;" d="M243 64L244 65L243 64z"/>
<path style="fill:#6693a8; stroke:none;" d="M216 65L216 66L220 67L220 66L216 65M243 66L243 67L247 66L243 66z"/>
<path style="fill:#eab6a0; stroke:none;" d="M217 66L218 67L217 66M245 66L246 67L245 66M222 67L223 68L222 67z"/>
<path style="fill:#6693a8; stroke:none;" d="M223 67L223 68L227 68L223 67M236 67L236 68L240 68L236 67z"/>
<path style="fill:#eab6a0; stroke:none;" d="M240 67L241 68L240 67M154 84L155 85L154 84z"/>
<path style="fill:#e28053; stroke:none;" d="M154 85L154 110C153.996 112.101 154.712 117.828 151.686 118.369C148.527 118.933 146.109 114.284 145.109 112C142.643 106.37 142.536 98.4616 136.895 94.7569C125.493 87.2682 126.078 105.213 128.782 111C130.801 115.322 133.156 119.265 134 124L126 124C126.025 132.744 129.588 147.069 137.005 152.351C143.408 156.912 151.881 157.815 159 160.873C166.406 164.054 172.54 170.855 180 173.411C189.772 176.759 204.682 174 215 174C207.078 158.352 179.55 147.23 163 145C166.227 137.25 171.733 130.383 173.316 122C175.658 109.599 165.036 90.3775 154 85z"/>
<path style="fill:#eab6a0; stroke:none;" d="M66 87L62 92L66 87z"/>
<path style="fill:#e28053; stroke:none;" d="M66 88C47.3981 106.759 46.0552 122.842 59 145C41.363 148.65 19.6789 157.882 9 173C19.4665 173 34.0209 175.63 44 172.437C51.7444 169.958 58.3247 163.194 66 160.012C72.855 157.169 80.8046 156.327 86.9059 151.895C93.739 146.931 96.8383 131.978 96 124L89 124C90.1477 119.804 91.884 115.927 93.7446 112C96.6018 105.97 96.4035 88.7614 85.213 96.7461C79.6769 100.696 79.6174 109.354 76.723 114.996C75.5706 117.242 73.4024 121.411 70.213 119.963C62.4981 116.461 68.8457 94.7816 66 88z"/>
<path style="fill:#eab6a0; stroke:none;" d="M159 89L160 90L159 89M160 90L161 91L160 90M161 91L162 92L161 91z"/>
<path style="fill:#f6fbfc; stroke:none;" d="M136 93L137 94L136 93z"/>
<path style="fill:#eab6a0; stroke:none;" d="M86 95L87 96L86 95M164 95L165 96L164 95M199 95L199 96L209 96L209 106L210 106L210 95L199 95M58 96L59 97L58 96M165 96L166 97L165 96z"/>
<path style="fill:#e28053; stroke:none;" d="M195 96C197.872 102.907 201.909 117.837 208.39 121.972C213.248 125.071 221.668 122.145 227 122.015C244.034 121.597 261.011 121.729 278 121C274.187 115.586 264.266 102.73 257.147 102.033C254.192 101.744 251.086 108.52 247.995 109.891C234.199 116.011 209.014 114.372 209 96L195 96z"/>
<path style="fill:#6693a8; stroke:none;" d="M195 97L196 98L195 97z"/>
<path style="fill:#eab6a0; stroke:none;" d="M166 98L167 99L166 98M194 98L195 99L194 98z"/>
<path style="fill:#08668b; stroke:none;" d="M195 98C195.639 104.241 201.381 122.565 207.39 125.397C218.129 130.456 238.359 125 250 125C257.137 125 275.576 128.262 280 122L228 123L208.39 121.972L195 98z"/>
<path style="fill:#eab6a0; stroke:none;" d="M56 99L57 100L56 99M82 99L83 100L82 99z"/>
<path style="fill:#f6fbfc; stroke:none;" d="M141 99L142 100L141 99z"/>
<path style="fill:#6693a8; stroke:none;" d="M194 99L195 100L194 99M196 99L197 100L196 99z"/>
<path style="fill:#eab6a0; stroke:none;" d="M55 100L56 101L55 100M194 100L195 101L194 100M81 101L82 102L81 101M168 101L169 102L168 101z"/>
<path style="fill:#6693a8; stroke:none;" d="M197 101L198 102L197 101z"/>
<path style="fill:#eab6a0; stroke:none;" d="M254.667 101.333L255.333 101.667L254.667 101.333M258 101L259 102L258 101M54 102L55 103L54 102M80 102L78 105L80 102z"/>
<path style="fill:#6693a8; stroke:none;" d="M195 102L196 103L195 102z"/>
<path style="fill:#eab6a0; stroke:none;" d="M259 102L260 103L259 102M169 103L170 104L169 103z"/>
<path style="fill:#6693a8; stroke:none;" d="M198 103L199 104L198 103z"/>
<path style="fill:#eab6a0; stroke:none;" d="M260 103L261 104L260 103z"/>
<path style="fill:#f6fbfc; stroke:none;" d="M89 123L96 123C99.9688 155.133 65.0802 159.114 44 173L44 174L179 174L179 173C171.793 168.253 165.159 163.188 157 160.065C148.633 156.862 138.334 155.7 132.649 147.96C127.23 140.581 120.837 123.156 134 123L126 104L97.6373 106.028L89 123z"/>
<path style="fill:#6693a8; stroke:none;" d="M196 104L197 105L196 104z"/>
<path style="fill:#eab6a0; stroke:none;" d="M261 104L262 105L261 104M126 105L127 106L126 105M170 105L171 106L170 105M262 105L263 106L262 105z"/>
<path style="fill:#6693a8; stroke:none;" d="M197 106L198 107L197 106z"/>
<path style="fill:#eab6a0; stroke:none;" d="M253 106L254 107L253 106M79 107L80 108L79 107M143 107L144 108L143 107M171 107L172 108L171 107M197 107L198 108L197 107M252 107L253 108L252 107M51 108L52 109L51 108M95 108L96 109L95 108M251 108L252 109L251 108M110.093 110.176C105.689 110.752 106.719 117.366 110.936 117.248C115.773 117.114 114.788 109.562 110.093 110.176M198 109L199 110L198 109M249 109L250 110L249 109M50 110L51 111L50 110M78.3333 110.667L78.6667 111.333L78.3333 110.667M94 110L95 111L94 110M144 110L145 111L144 110M172 110L173 111L172 110M216 110L217 111L216 110M246 110L247 111L246 110M199 111L200 112L199 111M220 111L220 112L223 112L220 111M241 111L241 112L244 112L241 111M93 112L94 113L93 112M233 112L234 113L233 112M49.3333 113.667L49.6667 114.333L49.3333 113.667M77 113L78 114L77 113M145 113L146 114L145 113z"/>
<path style="fill:#6693a8; stroke:none;" d="M200 113L201 114L200 113z"/>
<path style="fill:#eab6a0; stroke:none;" d="M92 114L93 115L92 114M173 114L173 117L174 117L173 114z"/>
<path style="fill:#6693a8; stroke:none;" d="M203 114L204 115L203 114z"/>
<path style="fill:#eab6a0; stroke:none;" d="M146 115L147 116L146 115z"/>
<path style="fill:#6693a8; stroke:none;" d="M201 115L202 116L201 115z"/>
<path style="fill:#eab6a0; stroke:none;" d="M91 116L92 117L91 116M131 116L132 117L131 116z"/>
<path style="fill:#6693a8; stroke:none;" d="M204 116L205 117L204 116z"/>
<path style="fill:#eab6a0; stroke:none;" d="M67 117L68 118L67 117z"/>
<path style="fill:#6693a8; stroke:none;" d="M202 117L203 118L202 117z"/>
<path style="fill:#eab6a0; stroke:none;" d="M275 117L276 118L275 117M132 118L133 119L132 118M153 118L154 119L153 118M202 118L203 119L202 118z"/>
<path style="fill:#6693a8; stroke:none;" d="M205 118L206 119L205 118z"/>
<path style="fill:#eab6a0; stroke:none;" d="M276 118L277 119L276 118M68 119L69 120L68 119M74 119L75 120L74 119M90 119L91 120L90 119M150 119L150 120L153 120L150 119M277 119L278 120L277 119M73 120L74 121L73 120M133.333 120.667L133.667 121.333L133.333 120.667M203 120L204 121L203 120z"/>
<path style="fill:#6693a8; stroke:none;" d="M206 120L207 121L206 120z"/>
<path style="fill:#eab6a0; stroke:none;" d="M278 120L279 121L278 120M70.6667 121.333L71.3333 121.667L70.6667 121.333M89 121L90 122L89 121M173.333 121.667L173.667 122.333L173.333 121.667z"/>
<path style="fill:#6693a8; stroke:none;" d="M272 121L272 122L280 122L272 121z"/>
<path style="fill:#eab6a0; stroke:none;" d="M204 122L205 123L204 122z"/>
<path style="fill:#6693a8; stroke:none;" d="M207 122L208 123L207 122M221 122L221 123L238 123L221 122z"/>
<path style="fill:#eab6a0; stroke:none;" d="M89 123L89 124L96 124L89 123M126 123L126 124L134 124L126 123z"/>
<path style="fill:#6693a8; stroke:none;" d="M205 124L206 125L205 124M278.667 124.333L279.333 124.667L278.667 124.333z"/>
<path style="fill:#eab6a0; stroke:none;" d="M49.3333 125.667L49.6667 126.333L49.3333 125.667M125 125L125 130L126 130L125 125M172.333 125.667L172.667 126.333L172.333 125.667z"/>
<path style="fill:#6693a8; stroke:none;" d="M237 125L237 126L251 126L237 125z"/>
<path style="fill:#eab6a0; stroke:none;" d="M251 125L251 126L261 126L251 125M96.3333 126.667L96.6667 127.333L96.3333 126.667M206 126L207 127L206 126z"/>
<path style="fill:#6693a8; stroke:none;" d="M207.667 126.333L208.333 126.667L207.667 126.333z"/>
<path style="fill:#eab6a0; stroke:none;" d="M209 126L209 127L220 127L209 126M171 128L172 129L171 128M50 129L51 130L50 129M96.3333 130.667L96.6667 131.333L96.3333 130.667M170 130L171 131L170 130M51 131L52 132L51 131M169 132L170 133L169 132M95 133L96 134L95 133M94 135L95 136L94 135M167 135L168 136L167 135M54 136L55 137L54 136M93 136L94 137L93 136M129 136L129 142L130 142L129 136M166 137L167 138L166 137M55 138L56 139L55 138M165 139L166 140L165 139M56 140L57 141L56 140M93 140L94 141L93 140M92 144L93 145L92 144M130 144L131 145L130 144M56 145L57 146L56 145M166 145L167 146L166 145M52 146L53 147L52 146M170 146L171 147L170 146M49 147L50 148L49 147M173 147L174 148L173 147M46 148L47 149L46 148M90 148L91 149L90 148M132 148L133 149L132 148M176 148L177 149L176 148M43 149L44 150L43 149M133 149L134 150L133 149M179 149L180 150L179 149M41 150L42 151L41 150M134 150L135 151L134 150M181 150L182 151L181 150M87 151L88 152L87 151M135 151L136 152L135 151M184 151L185 152L184 151M36 152L37 153L36 152M86 152L87 153L86 152M186 152L187 153L186 152M34 153L35 154L34 153M84 153L85 154L84 153M138 153L139 154L138 153M188 153L189 154L188 153M32 154L33 155L32 154M82 154L83 155L82 154M140 154L141 155L140 154M190 154L191 155L190 154M80 155L81 156L80 155M143 155L144 156L143 155M192 155L193 156L192 155M29 156L30 157L29 156M76.6667 156.333L77.3333 156.667L76.6667 156.333M145 156L146 157L145 156M194 156L195 157L194 156M27 157L28 158L27 157M72.6667 157.333L73.3333 157.667L72.6667 157.333M149 157L150 158L149 157M195 157L196 158L195 157M25 158L26 159L25 158M69.6667 158.333L70.3333 158.667L69.6667 158.333M152 158L153 159L152 158M197 158L198 159L197 158M24 159L25 160L24 159M67 159L68 160L67 159M155 159L156 160L155 159M22 160L23 161L22 160M64 160L65 161L64 160M158 160L159 161L158 160M200 160L201 161L200 160M21 161L22 162L21 161M62 161L63 162L62 161M160 161L161 162L160 161M60 162L61 163L60 162M162 162L163 163L162 162M203 162L204 163L203 162M18 163L19 164L18 163M58 163L59 164L58 163M164 163L165 164L164 163M204 163L205 164L204 163M17 164L18 165L17 164M56 164L57 165L56 164M166 164L167 165L166 164M53 166L54 167L53 166M169 166L170 167L169 166M208 166L209 167L208 166M13 167L14 168L13 167M209 167L210 168L209 167M12 168L13 169L12 168M50 168L51 169L50 168M172 168L173 169L172 168M210 168L211 169L210 168M11 169L12 170L11 169M211 169L212 170L211 169M10 170L11 171L10 170M47 170L48 171L47 170M175 170L176 171L175 170M9 171L10 172L9 171M46 171L47 172L46 171M176 171L177 172L176 171M7 173L7 174L44 174C35.0913 170.262 16.6362 171.941 7 173M45 172L46 173L45 172M177 172L178 173L177 172M215 173L216 174L215 173z"/>
</svg>
